<?xml version="1.0" encoding="UTF-8" standalone="no"?>
<svg
   version="1.0"
   width="368.82349"
   height="130.3101"
   viewBox="0 0 368.82349 130.3101"
   preserveAspectRatio="xMidYMid meet"
   id="svg16"
   sodipodi:docname="469b16ee452cdac4f7ae438a333cb805.svg"
   xmlns:inkscape="http://www.inkscape.org/namespaces/inkscape"
   xmlns:sodipodi="http://sodipodi.sourceforge.net/DTD/sodipodi-0.dtd"
   xmlns="http://www.w3.org/2000/svg"
   xmlns:svg="http://www.w3.org/2000/svg">
  <defs
     id="defs20" />
  <sodipodi:namedview
     id="namedview18"
     pagecolor="#ffffff"
     bordercolor="#666666"
     borderopacity="1.0"
     inkscape:pageshadow="2"
     inkscape:pageopacity="0.0"
     inkscape:pagecheckerboard="0" />
  <g
     fill="#0055b4"
     id="g14"
     transform="translate(-126.12699,-119.15824)">
    <path
       d="m 459.7,248.7 c -1.5,-1.1 -1.5,-4.2 -0.6,-36.2 1.1,-33.9 1.2,-35.1 3.3,-37.3 1.2,-1.2 3.9,-2.5 6.1,-2.9 l 3.8,-0.6 -0.7,7.6 c -0.4,4.3 -0.5,7.7 -0.2,7.7 0.3,0 2,-0.9 3.8,-2 7,-4.2 13.7,-1.7 17.5,6.7 2.2,4.7 2.5,6.5 2.1,12.4 -0.6,7.6 -4,15.9 -8.4,20 -2,1.9 -3.6,2.4 -7.5,2.3 -2.7,0 -5.5,-0.6 -6.1,-1.2 -3.1,-3.1 -3.8,-1.4 -3.8,9.6 0,7.2 -0.4,11.4 -1.2,12.4 -1.8,2.2 -6.1,3 -8.1,1.5 z m 21.7,-33.2 c 2,-4.1 3.2,-15.6 2.2,-20.9 -0.8,-4.3 -3.6,-6.2 -6.7,-4.5 -2.6,1.4 -5.7,8.2 -6,13.4 -0.5,9.4 0,12.5 2.6,15.1 3.1,3.1 5.4,2.1 7.9,-3.1 z"
       id="path2" />
    <path
       d="m 314,241.5 c -25.9,-4.2 -48.9,-14.6 -56.3,-25.2 -6.9,-10 -5.8,-17.6 3.4,-23.2 3.5,-2.1 12.9,-3 12.9,-1.2 0,0.5 -2.1,2.1 -4.7,3.6 -6.8,3.9 -9.3,6.5 -9.3,9.4 0,11.8 28.2,25.5 60,29.2 16.5,1.9 32.2,-0.3 36.5,-5.1 3.4,-3.7 1.8,-11.4 -3.3,-15.5 -8.5,-6.9 -18.7,-11.6 -37.7,-17.4 -5.5,-1.6 -17.4,-5.2 -26.5,-8 -35.7,-10.8 -46.3,-18 -44.4,-30.3 1.6,-10.5 9,-18.6 22.8,-25.3 38.3,-18.5 98.6,-17.6 112.9,1.7 2.4,3.2 2.8,10.3 0.8,14 -1.9,3.7 -8.1,6.8 -13.4,6.8 -9.5,0 -10.3,-2.8 -1.9,-6.8 9,-4.3 8,-8.5 -3.2,-12.1 -17.3,-5.7 -40.9,-5.4 -69.1,0.8 -20.7,4.5 -35.2,12.8 -37,21.3 -1,4.3 1.3,6.9 9.6,11 8.8,4.4 14.5,6.3 34.5,11.8 30.1,8.2 43.2,13.5 54.4,21.9 9.7,7.2 13.9,15.1 12.5,23.2 -1.3,7.4 -8.9,13.4 -20.3,15.8 -6.7,1.4 -23.5,1.2 -33.2,-0.4 z"
       id="path4" />
    <path
       d="m 135,235.8 c -5.4,-3.6 -8.3,-10.5 -8.8,-20.8 -0.9,-18.3 6.6,-31.4 18.1,-31.4 4.3,0 5.3,0.4 7.7,3 2.2,2.5 3,2.9 4.8,2.1 2.8,-1.3 6.9,-0.1 8.2,2.3 0.8,1.5 0.8,3.7 0,7.7 -1.3,7.4 -1.3,23 0,23.8 2.5,1.5 5.8,-3.9 9.9,-16.2 1.2,-3.4 2.1,-8.7 2.1,-11.7 0,-6.9 2.4,-9.6 8.4,-9.6 h 4.1 l 0.1,12.8 c 0,13.3 1.3,19.5 4.6,21.6 1.4,0.8 2.1,0.6 3.2,-0.9 1.9,-2.7 4.5,-12.2 5.8,-21.9 1.2,-8.3 1.9,-9.6 5.2,-9.6 4.3,0 -0.9,26.4 -7,35.1 -6.9,9.9 -15.9,8.8 -21.5,-2.7 l -2.2,-4.6 -2.3,4.9 c -5.1,10.6 -12.5,13.6 -18.4,7.3 l -2.8,-3 -2.2,4.5 c -3.9,8.1 -11.1,11.2 -17,7.3 z m 11.3,-8 c 4.8,-6.5 7.4,-19.9 5.6,-29.1 -1.3,-6.9 -2.8,-8.4 -6.8,-6.8 -5.7,2.4 -10,17 -8.6,29.1 1.2,10 5.3,12.8 9.8,6.8 z"
       id="path6" />
    <path
       d="m 376.1,235.1 c -1.4,-0.9 -1.3,-6 1,-33.6 0.5,-6.6 1.3,-20.4 1.7,-30.7 0.9,-20.5 1.3,-21.8 6.8,-21.8 4.4,0 6.6,2.3 5.9,6.3 -0.4,2.7 -2.4,25.1 -3.9,43.4 -0.3,2.9 -0.1,5.5 0.3,5.7 0.3,0.2 2.1,-2.3 3.9,-5.7 5,-9.5 6.5,-10.9 12.1,-11.5 2.7,-0.2 5.1,0 5.5,0.6 0.3,0.5 0.1,3.4 -0.4,6.3 -1.6,8 -2.5,26.5 -1.3,27.2 0.5,0.3 1.4,0.3 2,-0.1 2.1,-1.3 7.1,-10.9 10.3,-19.8 3.8,-10.4 7.7,-15.8 12.5,-17.4 6.3,-2.1 14,0.8 18,6.8 3,4.6 4.2,13.8 2.6,19.8 -4.4,16.3 -21.9,20.6 -30.7,7.6 l -2.1,-3.1 -3.9,5.7 c -4.6,6.8 -10.2,10.1 -13.9,8.4 -4.7,-2.2 -6,-5.7 -6,-16.8 0,-5.6 -0.3,-10 -0.8,-9.7 -1.9,1.1 -9.7,23.1 -9.7,27.2 0,4.8 -5.8,7.8 -9.9,5.2 z m 65.5,-18.2 c 2.7,-3 2.7,-18.7 0,-24.1 -2.2,-4.5 -5.7,-5.1 -8,-1.5 -2.1,3.2 -3,13.3 -1.6,19.2 1.8,8.1 5.7,10.7 9.6,6.4 z"
       id="path8" />
    <path
       d="m 224.3,229 c -5.4,-3.3 -6.5,-7.4 -6.1,-23.8 0.3,-12.9 0.5,-14.5 2.2,-15.8 2.6,-1.9 4.9,-1.8 7.6,0.4 2.2,1.8 2.2,1.9 0.9,13.9 -0.8,8 -0.9,13.2 -0.3,15.4 2,7 4.7,4.2 9.8,-10.2 3.4,-9.4 5.6,-12.3 7.6,-10.3 1.3,1.3 -3.9,17.7 -7.6,24.2 -4.1,7 -9.2,9.2 -14.1,6.2 z"
       id="path10" />
    <path
       d="m 219.3,179.3 c -2.5,-0.5 -5.3,-3.9 -5.3,-6.4 0,-5.1 10.4,-9.7 17.5,-7.8 6.9,1.9 7.2,9.5 0.5,13 -3.3,1.8 -7.6,2.2 -12.7,1.2 z"
       id="path12" />
  </g>
</svg>

