<?xml version="1.0" standalone="no"?>
<!DOCTYPE svg PUBLIC "-//W3C//DTD SVG 20010904//EN"
 "http://www.w3.org/TR/2001/REC-SVG-20010904/DTD/svg10.dtd">
<svg version="1.0" xmlns="http://www.w3.org/2000/svg"
 width="488.000000pt" height="498.000000pt" viewBox="0 0 488.000000 498.000000"
 preserveAspectRatio="xMidYMid meet">

<g transform="translate(0.000000,498.000000) scale(0.100000,-0.100000)"
fill="#000000" stroke="none">
<path d="M0 2490 l0 -2490 2440 0 2440 0 0 2490 0 2490 -2440 0 -2440 0 0
-2490z m1875 2146 c284 -36 396 -68 583 -166 187 -99 313 -207 441 -380 164
-221 244 -472 244 -770 1 -303 -79 -549 -256 -786 -76 -103 -210 -231 -312
-298 -93 -62 -85 -84 -85 228 l0 276 37 47 c46 61 116 208 138 293 26 99 31
314 10 425 -31 169 -97 297 -214 419 -98 101 -172 153 -312 220 -211 101 -255
106 -956 106 l-553 0 0 -2035 0 -2035 -227 2 -228 3 -3 2225 c-1 1224 0 2231
3 2238 8 22 1513 11 1690 -12z m1446 14 c372 -29 530 -65 727 -163 115 -58
150 -81 244 -156 185 -148 331 -360 407 -586 84 -253 86 -584 5 -832 -140
-430 -486 -752 -922 -858 -175 -43 -339 -57 -727 -62 -198 -3 -373 -3 -390 -1
l-30 3 35 19 c90 48 249 187 359 314 l51 59 193 6 c250 8 362 34 539 123 223
112 372 276 449 494 72 203 63 492 -22 685 -58 133 -173 270 -299 355 -91 62
-272 145 -370 170 -68 17 -126 23 -288 27 l-203 6 -64 77 c-73 87 -203 202
-307 272 -38 26 -73 49 -76 52 -10 10 549 6 689 -4z m-1395 -671 c92 -28 233
-102 286 -149 l43 -38 0 -1803 0 -1804 -227 -3 -228 -2 0 1910 0 1910 29 0
c16 0 60 -9 97 -21z m-366 -1789 l0 -200 -310 0 -310 0 0 193 c0 107 3 197 7
200 3 4 143 7 310 7 l303 0 0 -200z"/>
</g>
</svg>
